<svg id="Layer_1" data-name="Layer 1" xmlns="http://www.w3.org/2000/svg" viewBox="0 0 1596.49 636.33"><defs><style>.cls-1{fill:#fff;}</style></defs><title>PWW_2016_REBRAND_MASTER[2]</title><path class="cls-1" d="M335.58,272.73q0,55.33-30,93.59-33,43-88.88,43-30,0-50.62-19.42V514.65H84.24V219.76q0-29.43-8.53-39.44T43,170.31q-6.47-.58-6.47-7.06,0-5.88,6.47-6.48l123-21.78v38.26q16.47-29.43,53-29.43,51.21,0,83.87,37.38T335.58,272.73Zm-81.82,0q0-99.46-52.39-99.47-35.32,0-35.32,99.47v20.6q0,84.18,35.32,84.17Q253.75,377.5,253.76,272.73Zm281.29-73.58q-9.42-10-20.6-10-37.67,0-52.39,18.84-11.78,14.72-11.77,47.68V403.4H368.48V219.76q0-28.83-8.54-39.14t-32.67-10.3q-6.47-.58-6.48-7.06,0-5.88,6.48-6.48l123-21.78v44.15q17.66-43,69.45-43,5.88,0,15.3,2.94v60Zm274.64,77.7q0,63.57-36.79,98t-97.41,34.43q-60.63,0-96.53-33.55-37.67-35.32-37.67-98.89,0-66.51,37.67-103.59,35.9-35.32,96.53-35.32T772,173.26Q809.68,210.34,809.69,276.85Zm-81.82,0q0-54.14-6.47-77.11-11.19-39.43-45.91-39.43t-45.91,39.43q-6.48,23-6.48,77.11,0,47.68,6.48,67.1,11.17,33.55,45.91,33.55T721.4,344Q727.87,324.53,727.87,276.85ZM922.08,403.4q0,44.72-27.08,78.28-30,37.08-78.87,37.08H779.64V493.46h37.08q17.07,0,21.78-37.08,1.77-14.13,1.77-53V219.76q0-28.83-8.54-39.14t-32.67-10.3q-6.47-.58-6.48-7.06,0-5.88,6.48-6.48l123-21.78V403.4ZM920.31,63.75a43.22,43.22,0,0,1-13.54,32.08,44.69,44.69,0,0,1-32.37,13.24,42,42,0,0,1-31.19-13.24,44.18,44.18,0,0,1-12.95-32.08q0-18.83,12.95-31.49A43,43,0,0,1,874.4,19.61a45.79,45.79,0,0,1,32.37,12.65Q920.31,44.93,920.31,63.75Zm269.51,176.61-157.75,33.55q0,37.08,20,65.92,23,32.38,59.45,32.37,35.89,0,68.87-31.78v37.67q-33.55,31.21-95.94,31.2-60.63,0-97.12-34.43t-36.49-98q0-66.51,37.08-103.59,35.9-35.32,96.53-35.32,45.91,0,75.34,33Q1185.7,199.75,1189.83,240.36Zm-54.74-10.6q-5.89-73-50.62-73-48.86,0-52.39,94.77Zm314.21-11.18H1391q0-25.89-11.18-43-13-18.83-35.9-18.84-50.63,0-52.39,94.77-0.59,49.44,20,83.58,21.77,37.08,59.45,37.08,35.89,0,68.87-31.19l0.59,37.08q-34.14,31.21-96.53,31.2-60.63,0-97.12-34.43t-36.49-98q0-66.51,37.08-103.59,35.89-35.32,96.53-35.32,43.55,0,74.46,23.54T1449.3,218.58Zm183.76,186.59q-24.72,4.11-36.49,4.12-49.44,0-74.16-11.77-35.32-16.47-35.31-58.27V170.9H1444.7V142.65h42.38V92l81.23-14.72v65.33h44.15V170.9h-44.15V322.17q0,31.78,6.47,41.79,8.83,13.55,38.26,13.54a186.61,186.61,0,0,0,20-1.76v29.43Z" transform="translate(-36.56 -19.61)"/><path class="cls-1" d="M378.22,587.68a2.74,2.74,0,0,1,1.67,1.48,2.9,2.9,0,0,1,.1,2.19L358,654a0.31,0.31,0,0,0-.1.19,0.37,0.37,0,0,0,0,.14,1.27,1.27,0,0,1-.24.33v0l0,0a3.65,3.65,0,0,1-.33.38l-0.1.1-0.33.19a0.55,0.55,0,0,1-.14.1l-0.33.19h0a0,0,0,0,0,0,0s0,0,0,0a1.4,1.4,0,0,1-.29.1h-0.14a2.36,2.36,0,0,1-.48,0,2.15,2.15,0,0,1-.43,0h-0.14l-0.33-.1s0,0,0,0a0,0,0,0,0,0,0,2.09,2.09,0,0,1-.38-0.19,0.52,0.52,0,0,1-.14-0.1l-0.29-.19-0.1-.1-0.38-.38v0a0,0,0,0,1,0,0,2.82,2.82,0,0,1-.19-0.33,0.27,0.27,0,0,0-.1-0.14,0.43,0.43,0,0,0,0-.19l-19.32-55L314,654a0.31,0.31,0,0,0-.1.19,0.37,0.37,0,0,0,0,.14,1.27,1.27,0,0,1-.24.33v0l0,0a3.63,3.63,0,0,1-.33.38l-0.1.1-0.29.19a0.56,0.56,0,0,0-.14.1l-0.38.19h0l0,0s0,0,0,0a1.4,1.4,0,0,1-.29.1h-0.14a2.37,2.37,0,0,1-.48,0,2.15,2.15,0,0,1-.43,0h-0.14l-0.33-.1h0l0,0h0l-0.38-.19a0.53,0.53,0,0,1-.14-0.1l-0.29-.19-0.1-.1a3.63,3.63,0,0,1-.33-0.38,0,0,0,0,1,0,0l0,0a2.86,2.86,0,0,1-.19-0.33,0.38,0.38,0,0,0,0-.14,0.31,0.31,0,0,0-.1-0.19l-22-62.69a2.63,2.63,0,0,1,.1-2.19,2.8,2.8,0,0,1,3.81-1.33,3,3,0,0,1,1.48,1.62l19.28,55,19.32-55c0,0.1,0,0,.1-0.14l0.1-.29a0.74,0.74,0,0,0,.14-0.19,1.49,1.49,0,0,1,.19-0.24,0.52,0.52,0,0,1,.19-0.19l0.19-.19,0.19-.19a1.21,1.21,0,0,1,.29-0.14l0.24-.1c0.22-.1.27-0.13,0.14-0.1s0,0,.1,0l0.29-.1a0.65,0.65,0,0,0,.29,0h0.57a0.37,0.37,0,0,0,.24,0,1.48,1.48,0,0,1,.29.1c0.13,0,.17,0,0.14,0l0,0a0.14,0.14,0,0,1,.1,0l0.24,0.1,0.24,0.14a1.58,1.58,0,0,0,.24.19l0.19,0.19,0.19,0.19a0.6,0.6,0,0,1,.14.24,0.78,0.78,0,0,1,.14.19,1.22,1.22,0,0,1,.14.29c0.1,0.19.11,0.24,0,.14l19.32,55,19.33-55a2.74,2.74,0,0,1,1.48-1.62l1-.52Z" transform="translate(-36.56 -19.61)"/><path class="cls-1" d="M416.2,655.94a34.13,34.13,0,1,1,24.13-10A32.88,32.88,0,0,1,416.2,655.94Zm0-62.59a28.6,28.6,0,1,0,20.09,8.38A27.3,27.3,0,0,0,416.2,593.34Z" transform="translate(-36.56 -19.61)"/><path class="cls-1" d="M484.58,587.77a20.09,20.09,0,0,1,14.09,5.38,17.35,17.35,0,0,1,1,24.89A19.49,19.49,0,0,1,488,624.24l13.57,27.65a2.66,2.66,0,0,1,.14,2.14,2.76,2.76,0,0,1-1.43,1.62,2.73,2.73,0,0,1-1.24.29,2.61,2.61,0,0,1-2.52-1.57l-14.71-29.84h-15.9v28.13a2.84,2.84,0,0,1-2.86,2.81,2.77,2.77,0,0,1-2.81-2.81V590.58a2.71,2.71,0,0,1,.81-2,2.82,2.82,0,0,1,2-.81h21.56Zm14.28,18.37a11.6,11.6,0,0,0-4.19-9,14.58,14.58,0,0,0-10.09-3.76H465.87v25.47h19a14.42,14.42,0,0,0,9.85-3.81A11.61,11.61,0,0,0,498.86,606.15Z" transform="translate(-36.56 -19.61)"/><path class="cls-1" d="M517,587.82a2.84,2.84,0,0,1,2.81,2.85v59.59h30.89a2.84,2.84,0,0,1,2.86,2.81,2.79,2.79,0,0,1-.86,2,2.72,2.72,0,0,1-2,.81H517a2.77,2.77,0,0,1-2.86-2.86v-62.4a2.71,2.71,0,0,1,.81-2A2.79,2.79,0,0,1,517,587.82Z" transform="translate(-36.56 -19.61)"/><path class="cls-1" d="M565.34,655.94a2.71,2.71,0,0,1-2-.81,2.79,2.79,0,0,1-.86-2V590.49a2.79,2.79,0,0,1,.86-2,2.64,2.64,0,0,1,2-.86h15.85a34.08,34.08,0,0,1,0,68.16l-15.8.19h0Zm2.86-5.76,12.95-.19a28.32,28.32,0,1,0,0-56.64h-13v56.83Z" transform="translate(-36.56 -19.61)"/><path class="cls-1" d="M710.56,587.68a2.74,2.74,0,0,1,1.67,1.48,2.9,2.9,0,0,1,.1,2.19l-22,62.69a0.31,0.31,0,0,0-.1.19,0.37,0.37,0,0,0,0,.14,1.28,1.28,0,0,1-.24.33v0l0,0a3.65,3.65,0,0,1-.33.38l-0.1.1-0.33.19a0.55,0.55,0,0,1-.14.1l-0.33.19h0a0,0,0,0,0,0,0s0,0,0,0a1.41,1.41,0,0,1-.29.1H688.1a2.35,2.35,0,0,1-.48,0,2.15,2.15,0,0,1-.43,0H687l-0.33-.1s0,0,0,0a0,0,0,0,0,0,0,2.09,2.09,0,0,1-.38-0.19,0.53,0.53,0,0,1-.14-0.1l-0.29-.19-0.1-.1-0.38-.38v0a0,0,0,0,1,0,0,2.82,2.82,0,0,1-.19-0.33,0.27,0.27,0,0,0-.1-0.14,0.44,0.44,0,0,0,0-.19l-19.33-55L646.3,654a0.31,0.31,0,0,0-.1.19,0.37,0.37,0,0,0,0,.14,1.27,1.27,0,0,1-.24.33v0l0,0a3.6,3.6,0,0,1-.33.38l-0.1.1-0.29.19a0.55,0.55,0,0,0-.14.1l-0.38.19h0l0,0s0,0,0,0a1.4,1.4,0,0,1-.29.1h-0.14a2.37,2.37,0,0,1-.48,0,2.15,2.15,0,0,1-.43,0H643l-0.33-.1h0l0,0h0l-0.38-.19a0.54,0.54,0,0,1-.14-0.1l-0.29-.19-0.1-.1a3.6,3.6,0,0,1-.33-0.38,0,0,0,0,1,0,0l0,0a2.78,2.78,0,0,1-.19-0.33,0.38,0.38,0,0,0,0-.14,0.31,0.31,0,0,0-.1-0.19l-22-62.69a2.63,2.63,0,0,1,.1-2.19,2.8,2.8,0,0,1,3.81-1.33,3,3,0,0,1,1.48,1.62l19.28,55,19.33-55c0,0.1,0,0,.1-0.14l0.1-.29a0.73,0.73,0,0,0,.14-0.19,1.49,1.49,0,0,1,.19-0.24,0.52,0.52,0,0,1,.19-0.19l0.19-.19L664,588a1.22,1.22,0,0,1,.29-0.14l0.24-.1q0.33-.14.14-0.1c-0.06,0,0,0,.1,0l0.29-.1a0.65,0.65,0,0,0,.29,0h0.57a0.37,0.37,0,0,0,.24,0,1.48,1.48,0,0,1,.29.1c0.13,0,.17,0,0.14,0l0,0a0.14,0.14,0,0,1,.1,0l0.24,0.1L667.2,588a1.58,1.58,0,0,0,.24.19l0.19,0.19,0.19,0.19a0.6,0.6,0,0,1,.14.24,0.79,0.79,0,0,1,.14.19,1.21,1.21,0,0,1,.14.29c0.1,0.19.11,0.24,0,.14l19.33,55,19.32-55a2.74,2.74,0,0,1,1.48-1.62l1-.52Z" transform="translate(-36.56 -19.61)"/><path class="cls-1" d="M726,653.08a2.86,2.86,0,0,1-5.71,0V590.73a2.86,2.86,0,0,1,5.71,0v62.35Z" transform="translate(-36.56 -19.61)"/><path class="cls-1" d="M739.85,655.94a2.71,2.71,0,0,1-2-.81,2.79,2.79,0,0,1-.86-2V590.49a2.79,2.79,0,0,1,.86-2,2.64,2.64,0,0,1,2-.86h15.85a34.08,34.08,0,0,1,0,68.16l-15.8.19h0Zm2.86-5.76,12.95-.19a28.32,28.32,0,1,0,0-56.64h-13v56.83Z" transform="translate(-36.56 -19.61)"/><path class="cls-1" d="M802.94,655.94a2.93,2.93,0,0,1-2.86-2.86V590.44a2.64,2.64,0,0,1,.86-2,2.52,2.52,0,0,1,2-.86l37.79,0.1a2.64,2.64,0,0,1,2,.86,2.73,2.73,0,0,1,.86,2,2.78,2.78,0,0,1-.86,2,2.71,2.71,0,0,1-2,.81l-34.94-.1V618.9h26.13a2.86,2.86,0,0,1,0,5.71H805.79v25.61h34.94a2.86,2.86,0,0,1,0,5.71H802.94Z" transform="translate(-36.56 -19.61)"/><path class="cls-1" d="M876.48,601a4.78,4.78,0,0,1,3.51,1.44,5,5,0,0,1,0,7.06,4.78,4.78,0,0,1-3.51,1.44,4.9,4.9,0,0,1-4.95-4.95,4.92,4.92,0,0,1,1.43-3.55A4.86,4.86,0,0,1,876.48,601Zm0,33.45a4.78,4.78,0,0,1,3.51,1.44,4.85,4.85,0,0,1,1.48,3.55,5,5,0,0,1-5,4.95,4.9,4.9,0,0,1-4.95-4.95,4.92,4.92,0,0,1,1.43-3.55A4.78,4.78,0,0,1,876.48,634.45Z" transform="translate(-36.56 -19.61)"/><path class="cls-1" d="M943.27,655.94a34.2,34.2,0,0,1,0-68.4,33.23,33.23,0,0,1,20.85,7.09,2.69,2.69,0,0,1,1.09,1.9,2.74,2.74,0,0,1-.57,2.09,2.69,2.69,0,0,1-1.9,1.1,2.5,2.5,0,0,1-2.1-.57,27.86,27.86,0,0,0-17.37-5.86,28.44,28.44,0,1,0,19.18,49.5A2.86,2.86,0,1,1,966.3,647,33.05,33.05,0,0,1,943.27,655.94Z" transform="translate(-36.56 -19.61)"/><path class="cls-1" d="M999.44,587.77a20.09,20.09,0,0,1,14.09,5.38c3.87,3.59,4.5,7.92,4.5,13,0,4.51-.28,8.47-3.45,11.9a19.49,19.49,0,0,1-11.76,6.19l13.56,27.65a2.66,2.66,0,0,1,.14,2.14,2.77,2.77,0,0,1-1.43,1.62,2.73,2.73,0,0,1-1.24.29,2.61,2.61,0,0,1-2.52-1.57l-14.71-29.84h-15.9v28.13a2.74,2.74,0,0,1-.86,2,2.71,2.71,0,0,1-2,.81,2.77,2.77,0,0,1-2.81-2.81V590.58a2.71,2.71,0,0,1,.81-2,2.82,2.82,0,0,1,2-.81h21.56Zm14.28,18.37a11.6,11.6,0,0,0-4.19-9,14.58,14.58,0,0,0-10.09-3.76H980.73v25.47h19a14.42,14.42,0,0,0,9.85-3.81A11.61,11.61,0,0,0,1013.72,606.15Z" transform="translate(-36.56 -19.61)"/><path class="cls-1" d="M1030.27,655.94a2.93,2.93,0,0,1-2.86-2.86V590.44a2.64,2.64,0,0,1,.86-2,2.52,2.52,0,0,1,2-.86l37.79,0.1a2.64,2.64,0,0,1,2,.86,2.74,2.74,0,0,1,.86,2,2.8,2.8,0,0,1-.86,2,2.72,2.72,0,0,1-2,.81l-34.94-.1V618.9h26.13a2.86,2.86,0,0,1,0,5.71h-26.13v25.61h34.94a2.86,2.86,0,0,1,0,5.71h-37.79Z" transform="translate(-36.56 -19.61)"/><path class="cls-1" d="M1078.12,655.7a2.58,2.58,0,0,1-1.52-1.52,2.63,2.63,0,0,1,0-2.19l6.62-15.94v0l19.28-46.5c0.06-.16.14-0.33,0.24-0.52l0.19-.19,0.19-.24,0.24-.19,0.19-.14a2.54,2.54,0,0,1,1-.43h0.24l0.33,0,0.29,0h0.24a2.54,2.54,0,0,1,1,.43l0.19,0.14a0.68,0.68,0,0,0,.24.19l0.19,0.24a0.34,0.34,0,0,0,.19.19c0.1,0.19.17,0.36,0.24,0.52L1127,636v0l6.62,15.94a2.63,2.63,0,0,1,0,2.19,2.57,2.57,0,0,1-1.52,1.52,2.78,2.78,0,0,1-3.71-1.52l-5.9-14.18h-34.75l-5.9,14.18a2.61,2.61,0,0,1-2.62,1.76h-0.57Zm42-21.42-15-36.27-15,36.27h30.08Z" transform="translate(-36.56 -19.61)"/><path class="cls-1" d="M1146.74,593.34h-18.8a2.89,2.89,0,0,1-2-.81,2.88,2.88,0,0,1,0-4,2.8,2.8,0,0,1,2-.86h43.27a2.83,2.83,0,0,1,2,4.85,2.71,2.71,0,0,1-2,.81h-18.8v59.74a2.77,2.77,0,0,1-2.86,2.86,2.81,2.81,0,0,1-2-.81,2.86,2.86,0,0,1-.81-2V593.34Z" transform="translate(-36.56 -19.61)"/><path class="cls-1" d="M1190.49,653.08a2.86,2.86,0,0,1-5.71,0V590.73a2.86,2.86,0,0,1,5.71,0v62.35Z" transform="translate(-36.56 -19.61)"/><path class="cls-1" d="M1248.82,587.82a2.75,2.75,0,0,1,1.62,1.47,2.79,2.79,0,0,1,.1,2.14L1228.59,654c0-.06,0,0-0.09.19a0.34,0.34,0,0,0,0,.14,1.27,1.27,0,0,1-.24.33l0,0.1a3.63,3.63,0,0,1-.33.38l-0.1.1-0.28.19-0.19.1-0.33.19h0l0,0s0,0,0,0a1.38,1.38,0,0,1-.28.1h-0.14a2.34,2.34,0,0,1-.47,0,2.15,2.15,0,0,1-.43,0h-0.14l-0.33-.1h0l0,0h0l-0.38-.19a0.5,0.5,0,0,1-.14-0.1l-0.29-.19-0.09-.1a3.67,3.67,0,0,1-.34-0.38l0,0v0a1.21,1.21,0,0,1-.24-0.33,0.38,0.38,0,0,0,0-.14,0.31,0.31,0,0,0-.09-0.19l-21.94-62.59a2.52,2.52,0,0,1,.09-2.14,2.8,2.8,0,0,1,3.81-1.33,2.6,2.6,0,0,1,1.43,1.62l19.28,54.93,19.33-54.93a2.59,2.59,0,0,1,1.43-1.62l1-.52Z" transform="translate(-36.56 -19.61)"/><path class="cls-1" d="M1266,653.08a2.86,2.86,0,0,1-5.71,0V590.73a2.86,2.86,0,0,1,5.71,0v62.35Z" transform="translate(-36.56 -19.61)"/><path class="cls-1" d="M1297.55,593.34h-18.8a2.89,2.89,0,0,1-2-.81,2.88,2.88,0,0,1,0-4,2.8,2.8,0,0,1,2-.86H1322a2.83,2.83,0,0,1,2,4.85,2.71,2.71,0,0,1-2,.81h-18.8v59.74a2.77,2.77,0,0,1-2.86,2.86,2.82,2.82,0,0,1-2-.81,2.86,2.86,0,0,1-.81-2V593.34Z" transform="translate(-36.56 -19.61)"/><path class="cls-1" d="M1383.34,588.25a2.81,2.81,0,0,1,1.09,1.9,2.88,2.88,0,0,1-.62,2.09l-23.47,29.37v31.46a2.72,2.72,0,0,1-.81,2,2.8,2.8,0,0,1-2,.86,2.74,2.74,0,0,1-2-.86,2.71,2.71,0,0,1-.81-2V621.62l-23.47-29.37a2.89,2.89,0,0,1-.62-2.09,2.82,2.82,0,0,1,1.09-1.9,2.65,2.65,0,0,1,2-.57,2.69,2.69,0,0,1,2,1l21.8,27.32,21.85-27.32a2.65,2.65,0,0,1,1.91-1A2.72,2.72,0,0,1,1383.34,588.25Z" transform="translate(-36.56 -19.61)"/></svg>